Patient4_TMGait_0pt6_01_right_38_EMG.mot
version=1
nRows=13
nColumns=33
inDegrees=no
endheader
time	1LAddLong	2LGlutMax	3LGlutMed	4LIliopsoas	5LSemiMemb	6LBicFemLong	7LRecFem	8LVastMed	9LVastLat	10LGasMed	11LTibAnt	12lTibPost	13LPeroneusLong	14LSol	15LExtDigLong	16LFlexDigLong	17RAddLong	18RGlutMax	19RGlutMed	20RIliopsoas	21RSemiMemb	22RBicFemLong	23RRecFem	24RVastMed	25RVastLat	26RGasMed	27RTibAnt	28RTibPost	29RPeroneusLong	30RSol	31RExtDigLong	32RFlexDigLong
45.71	-0.000916	-0.072937	0.00824	0.016327	0.029907	0.082703	0.06424	0.021362	-0.032196	-0.19653	-0.15854	-0.003052	0.075378	-0.077209	-0.32776	-0.014343	-0.05661	-0.14114	0.30502	-0.038452	-0.055084	0.046997	0.014496	-0.057068	-0.039825	-0.001678	-0.092773	-0.001221	0.087738	-0.112	-0.001221	0.014496
45.711	-0.001526	-0.069122	0.10147	0.003052	0.048676	0.056458	0.074463	0.023346	-0.041504	-0.39078	-0.011444	0	0.002594	0.01297	-0.11414	-0.007782	0.001068	-0.1297	0.43045	-0.059357	-0.060577	0.058136	0.03952	-0.024109	0.001678	0.003052	0.11154	0.002136	0.21637	-0.062714	0.002441	-0.002136
45.712	0.003357	-0.060272	0.086975	-0.00824	0.058594	0.044403	0.07843	0.022583	-0.028839	-0.26947	-0.010376	-0.001526	0.00824	-0.061035	0.002136	-0.02594	0.028839	-0.088196	0.42007	-0.12299	-0.050964	0.063934	0.11917	-0.057983	-0.01297	0.005035	0.44464	-0.000458	0.25864	-0.10956	-0.002747	0.00351
45.713	-0.000153	-0.02182	0.091705	-0.037689	0.046997	0.017242	0.037994	0.021973	0.004578	-0.18967	-0.020294	-0.007477	0.044861	-0.13397	0.061798	-0.017395	0.077667	-0.15686	0.36514	-0.13168	-0.048828	0.06897	0.14587	-0.047607	-0.019989	0.001373	0.4599	0	0.18097	-0.13229	-0.001831	-0.018921
45.714	0.001526	0.000305	0.10056	0.004425	0.033569	-0.0177	0.059357	0.02182	0.074005	0.13641	-0.057678	0.000916	0.034637	-0.076141	0.10147	-0.50308	0.12375	-0.11246	0.40131	-0.015411	-0.027466	0.033569	0.074615	-0.017853	-0.038757	0.009155	0.47867	-0.000763	-0.012817	-0.10269	-0.002441	-0.003662
45.715	-0.002441	0.00061	0.080261	0.034485	0.024109	-0.016632	0.098877	0.009308	0.1831	0.57404	-0.046539	-0.002899	0.016022	-0.067444	0.07782	-0.22018	0.088196	-0.13107	0.36407	0.09903	-0.019531	0.055847	0.067902	-0.059509	-0.041656	0.009003	0.074921	-0.001221	-0.24414	-0.11169	-0.003357	-0.005341
45.716	-0.002594	0.004272	-0.014038	0.018158	0.013733	-0.003357	0.042725	0.001068	0.1799	0.8223	-0.01709	-0.004425	-0.076141	-0.037231	0.048676	0.89768	0.077362	-0.13992	0.34576	0.21469	-0.028992	0.064697	0.11063	-0.043182	-0.020599	0.002747	0.002289	-0.002136	-0.25864	-0.093231	-0.005188	-0.011292
45.717	0.009308	0.014038	0.080261	-0.02243	0.018005	-0.003967	0.009308	0.006866	-0.007019	0.58075	0.00885	-0.005646	-0.078278	-0.080566	0.079498	-0.298	0.022278	-0.12482	0.40634	0.30365	-0.058136	0.053711	0.097046	-0.030975	0.004272	0.004883	-0.075378	-0.00061	-0.1831	-0.047607	-0.002747	-0.00351
45.718	0.010223	0.021057	0.16174	-0.014648	0.038452	0.032349	0.001221	0.009155	0.060577	0.32837	0.018463	-0.001678	-0.007019	-0.16647	0.11017	-0.046234	-0.010681	-0.11673	0.4985	0.18845	-0.035858	0.048676	0.14725	-0.011292	-0.024414	0.004272	-0.16159	0	-0.23605	-0.057831	-0.002747	-0.005798
45.719	0.013733	0.009155	0.20355	0.001068	0.050812	0.002747	-0.042419	-0.004578	0.089722	-0.061646	0.040131	0.007477	0.058899	-0.15747	0.10254	-0.23407	-0.032959	-0.10162	0.36011	0.052185	-0.004578	0.064087	0.11505	-0.076447	-0.049438	-0.006866	-0.21423	-0.001984	-0.098724	-0.021057	-0.002899	-0.002594
45.72	0.007629	0.022125	0.064697	0.016174	0.040283	0.007324	0.015717	0.00824	0.059204	-0.36468	0.015259	0.015411	0.093689	-0.19501	0.074768	0.33402	-0.055847	-0.095978	0.26947	0.007629	-0.036621	0.076294	-0.023499	-0.041351	-0.032806	-0.009003	-0.040741	-0.00351	-0.098724	0.019531	-0.002594	-0.011292
45.721	0.005188	0.03891	0.057983	0.019073	0.041046	0.011749	0.052948	0.009155	0.15503	-0.53192	0.01358	0.019531	0.12848	-0.24033	0.062866	-0.08194	-0.04303	-0.09079	0.28976	-0.012054	-0.029144	0.15274	-0.1593	-0.029755	-0.033875	0.000763	0.20248	-0.003662	-0.083466	-0.039368	-0.003662	-0.002594
45.722	-0.00061	0.040894	0.082397	-0.005951	0.035248	0.00824	0.066833	0.007782	0.21439	-0.31097	0.000916	0.027313	0.10162	-0.087433	0.070801	-0.02533	-0.036469	-0.07843	0.4776	0.003052	-0.032501	0.10574	-0.19989	-0.013275	-0.03891	0.010071	0.21027	0.001984	0.15137	-0.085907	-0.000458	-0.001221
